<svg id="Capa_1" enable-background="new 0 0 512 512" height="512" viewBox="0 0 512 512" width="512" xmlns="http://www.w3.org/2000/svg"><g><path d="m368.5 497h15v15h-15z"/><path d="m376 59.999h15v15h-15z"/><path d="m376 89.999h15v15.001h-15z"/><path d="m425.849 284.067-28.455 74.713 14.019 5.339 6.794-17.839h28.122l6.727 17.825 14.034-5.296-28.21-74.752zm-1.93 47.213 8.412-22.089 8.336 22.089z"/><path d="m474.5 231.5h-23.501v-209c0-12.406-10.094-22.5-22.5-22.5h-344.999c-12.406 0-22.5 10.094-22.5 22.5v44.999h-23.5c-20.678 0-37.5 16.822-37.5 37.5v46.501h15v-46.501c0-12.406 10.094-22.5 22.5-22.5h84.503c12.406 0 22.5 10.094 22.5 22.5v25.287l28.714 28.714-28.714 28.713v25.287c0 12.406-10.094 22.5-22.5 22.5h-84.503c-12.406 0-22.5-10.094-22.5-22.5v-46.5h-15v46.5c0 20.678 16.822 37.5 37.5 37.5h23.5v239c0 12.406 10.094 22.5 22.5 22.5h270v-15h-270c-4.136 0-7.5-3.364-7.5-7.5v-239h15v201.501h330v-37.5h14.999v74.999c0 4.136-3.364 7.5-7.5 7.5h-29.999v15h29.999c12.406 0 22.5-10.094 22.5-22.5v-74.999h23.501c20.678 0 37.5-16.822 37.5-37.5v-108.001c0-20.678-16.822-37.5-37.5-37.5zm-398.5-209c0-4.136 3.364-7.5 7.5-7.5h344.999c4.136 0 7.5 3.364 7.5 7.5v209h-14.999v-201.5h-330v37.499h-15zm330 414.501h-300v-186.501h16.003c20.678 0 37.5-16.822 37.5-37.5v-19.074l34.927-34.926-34.927-34.927v-19.074c0-20.678-16.822-37.5-37.5-37.5h-16.003v-22.499h300v186.5h-16.003c-20.678 0-37.5 16.822-37.5 37.5v19.074l-34.927 34.927 34.927 34.926v19.074c0 20.678 16.822 37.5 37.5 37.5h16.003zm91-60c0 12.406-10.094 22.5-22.5 22.5h-84.503c-12.406 0-22.5-10.094-22.5-22.5v-25.287l-28.714-28.713 28.714-28.714v-25.287c0-12.406 10.094-22.5 22.5-22.5h84.503c12.406 0 22.5 10.094 22.5 22.5z"/><path d="m78.971 120.456c-21.253 0-38.544 17.291-38.544 38.544s17.291 38.544 38.544 38.544c7.879 0 15.383-2.341 21.733-6.695l9.551 9.55 10.606-10.606-9.649-9.649c4.101-6.229 6.303-13.523 6.303-21.143 0-21.254-17.291-38.545-38.544-38.545zm21.253 48.699-9.831-9.831-10.606 10.606 9.998 9.998c-3.3 1.71-6.984 2.615-10.813 2.615-12.982 0-23.544-10.562-23.544-23.544s10.562-23.544 23.544-23.544 23.544 10.562 23.544 23.544c-.001 3.571-.792 7.024-2.292 10.156z"/><path d="m286 181h-60v30h-30v60h30v30h60v-30h30v-60h-30zm15 45v30h-30v30h-30v-30h-30v-30h30v-30h30v30z"/><path d="m248.5 467h15v15h-15z"/></g></svg>