<svg fill="#28527a" height="512" viewBox="0 0 64 64" width="512" xmlns="http://www.w3.org/2000/svg"><g id="Layer_15" data-name="Layer 15"><path d="m55 57h-3v-11a1 1 0 0 0 -1-1h-7v-2h7a1 1 0 0 0 .857-1.515l-.34-.567a20.428 20.428 0 0 0 -35.034 0l-.34.567a1 1 0 0 0 .857 1.515h7v2h-7a1 1 0 0 0 -1 1v11h-3a1 1 0 0 0 -1 1v4a1 1 0 0 0 1 1h42a1 1 0 0 0 1-1v-4a1 1 0 0 0 -1-1zm-21-24a18.532 18.532 0 0 1 15.193 8h-30.386a18.532 18.532 0 0 1 15.193-8zm-8 10h16v2h-16zm-8 4h32v10h-32zm36 14h-40v-2h40z"/><path d="m8 18a.985.985 0 0 0 .362-.068 1 1 0 0 0 .572-.573l.592-1.54 8.805 7.924a1 1 0 0 0 .512.245l12.615 2a.924.924 0 0 0 .157.013 3.385 3.385 0 0 0 2.8-1.487l4.377 3.931a.979.979 0 0 0 .183.13 3.364 3.364 0 0 0 4.661-1.462l.082.075a3.164 3.164 0 0 0 5.282-2.316 3.109 3.109 0 0 0 -.9-2.2l-11.552-11.729a10.912 10.912 0 0 0 -7.468-2.943h-10.844l-4.783-2.392.481-1.249a1 1 0 0 0 -.487-1.254l-4-2a1 1 0 0 0 -1.381.536l-5 13a1 1 0 0 0 .487 1.259l4 2a1 1 0 0 0 .447.1zm32.617 9a1.385 1.385 0 0 1 -.584-.129l-5.054-4.54a3.361 3.361 0 0 0 -2.107-2.86l-3.678-1.471h4.419l8.387 7.624a1.383 1.383 0 0 1 -1.383 1.376zm-23.064-17.1a1 1 0 0 0 .447.1h11.08a8.9 8.9 0 0 1 6.073 2.376l11.523 11.705a1.12 1.12 0 0 1 .324.791 1.141 1.141 0 0 1 -1.177 1.128 1.127 1.127 0 0 1 -.759-.293l-10.391-9.447a1 1 0 0 0 -.673-.26h-10a1 1 0 0 0 -.371 1.929l8.5 3.4a1.385 1.385 0 0 1 -.445 2.671l-12.235-1.941-9.149-8.239 2.437-6.336zm-12.294 4.612 4.279-11.125 2.2 1.1-4.276 11.126z"/><path d="m50.757 27h8.485v2h-8.485z" transform="matrix(.707 -.707 .707 .707 -3.69 47.092)"/><path d="m53 34h8v2h-8z"/><path d="m12 23.757h2v8.485h-2z" transform="matrix(.707 -.707 .707 .707 -15.991 17.393)"/><path d="m7 34h8v2h-8z"/></g></svg>
