<svg fill="#28527a" id="Capa_1" enable-background="new 0 0 512.003 512.003" height="512" viewBox="0 0 512.003 512.003" width="512" xmlns="http://www.w3.org/2000/svg"><g><path d="m120.886 136.864 15-120c1.028-8.22-4.803-15.717-13.023-16.745-8.222-1.025-15.717 4.804-16.744 13.024l-8.855 70.841-7.845-15.689c-2.54-5.082-7.734-8.292-13.416-8.292s-10.876 3.21-13.416 8.292l-7.845 15.689-8.855-70.841c-1.027-8.22-8.532-14.051-16.744-13.024-8.222 1.027-14.053 8.524-13.025 16.745l15 120c1.835 14.686 21.685 18.079 28.3 4.848l16.584-33.167 16.584 33.167c6.61 13.222 26.465 9.844 28.3-4.848z"/><path d="m181.002 150.003c8.284 0 15-6.716 15-15v-45h30v45c0 8.284 6.716 15 15 15s15-6.716 15-15v-120c0-8.284-6.716-15-15-15s-15 6.716-15 15v45h-30v-45c0-8.284-6.716-15-15-15s-15 6.716-15 15v120c0 8.284 6.716 15 15 15z"/><path d="m316.002 78.543v56.46c0 8.284 6.716 15 15 15s15-6.716 15-15v-56.46l28.416-56.832c3.705-7.41.702-16.42-6.708-20.125-7.406-3.703-16.419-.702-20.124 6.708l-16.584 33.167-16.584-33.166c-3.704-7.409-12.714-10.413-20.124-6.708s-10.413 12.715-6.708 20.125z"/><path d="m451.002.003c-24.813 0-45 20.187-45 45 0 8.284 6.716 15 15 15s15-6.716 15-15c0-8.271 6.729-15 15-15s15 6.729 15 15c0 5.34-2.878 10.323-7.511 13.002-13.872 8.024-22.489 22.957-22.489 38.97 0 8.284 6.716 15 15 15s15-6.716 15-15c0-5.34 2.878-10.322 7.511-13.002 13.872-8.025 22.489-22.957 22.489-38.97 0-24.813-20.186-45-45-45z"/><circle cx="451.002" cy="135.003" r="15"/><path d="m271.002 182.003c-90.981 0-165 74.019-165 165s74.019 165 165 165 165-74.019 165-165-74.018-165-165-165zm0 300c-74.439 0-135-60.561-135-135s60.561-135 135-135 135 60.561 135 135c0 74.44-60.56 135-135 135z"/><path d="m301.002 362.003c-24.813 0-45 20.187-45 45 0 8.284 6.716 15 15 15s15-6.716 15-15c0-8.271 6.729-15 15-15s15 6.729 15 15c0 8.284 6.716 15 15 15s15-6.716 15-15c0-24.813-20.186-45-45-45z"/><circle cx="211.002" cy="317.003" r="15"/><circle cx="331.002" cy="317.003" r="15"/></g></svg>
